<?xml version="1.0" encoding="utf-8"?>
<!-- Generator: Adobe Illustrator 25.1.0, SVG Export Plug-In . SVG Version: 6.00 Build 0)  -->
<svg version="1.1" id="Layer_1" xmlns="http://www.w3.org/2000/svg" xmlns:xlink="http://www.w3.org/1999/xlink" x="0px" y="0px"
	 viewBox="0 0 138.9 70" style="enable-background:new 0 0 138.9 70;" xml:space="preserve">
<style type="text/css">
	.st0{fill-rule:evenodd;clip-rule:evenodd;fill:#5F2EE5;}
	.st1{fill-rule:evenodd;clip-rule:evenodd;fill:#4723AC;}
	.st2{fill-rule:evenodd;clip-rule:evenodd;fill:#4ABEA4;}
	.st3{fill:#5F2EE5;}
	.st4{fill:#4ABEA4;}
</style>
<path class="st0" d="M31.2,0h2.6c0.2,0,0.3,0.2,0.3,0.4V46h-3.2V0.4C30.9,0.2,31,0,31.2,0L31.2,0z"/>
<path class="st1" d="M32.6,4.1C48.1,4.5,55,11.9,57.4,23.2c-5.7-3.2-10.5-2.4-14.9,0c-6.6-2.5-13.3-2.4-20,0c-5.3-3.1-10.3-2.6-15,0
	C8,12.8,18.5,3.8,32.6,4.1L32.6,4.1z"/>
<path class="st1" d="M32.6,4.1c7.7,5.9,10.5,12.3,10,19.1c-6.1-2.3-12.7-2.6-20,0C22.3,15.7,25,9.2,32.6,4.1L32.6,4.1z"/>
<path class="st0" d="M32.4,2.7C47.8,3,54.7,10.4,57.1,21.9c-5.7-3.3-10.4-2.4-14.7,0c-6.6-2.5-13.2-2.4-19.8,0
	c-5.3-3.1-10.2-2.6-14.9,0C8.1,11.4,18.5,2.4,32.4,2.7L32.4,2.7z"/>
<path class="st2" d="M32.4,2.7c7.7,5.9,10.4,12.4,9.9,19.2c-6.1-2.3-12.6-2.6-19.8,0C22.3,14.3,25,7.7,32.4,2.7L32.4,2.7z"/>
<path class="st3" d="M66.1,35.3h0.4c0.9,0,1.6-0.2,2-0.5s0.7-0.9,0.7-1.6c0-0.7-0.2-1.2-0.6-1.5s-1.1-0.5-2-0.5h-0.5V35.3L66.1,35.3
	z M66.1,42.8h1c1,0,1.7-0.2,2.2-0.5c0.5-0.4,0.7-0.9,0.7-1.6c0-0.8-0.3-1.4-0.7-1.9c-0.5-0.4-1.2-0.6-2.2-0.6h-1V42.8L66.1,42.8z
	 M63,46V28h3.6c0.7,0,1.3,0,1.8,0.1c0.4,0.1,0.8,0.2,1.1,0.3c0.9,0.4,1.6,1,2.1,1.8s0.7,1.6,0.7,2.7c0,0.8-0.1,1.5-0.4,2.2
	c-0.3,0.6-0.7,1.1-1.3,1.4c0.8,0.3,1.5,0.8,1.9,1.5c0.5,0.8,0.7,1.6,0.7,2.7c0,0.8-0.1,1.6-0.4,2.4c-0.3,0.8-0.7,1.4-1.2,1.8
	c-0.5,0.5-1.1,0.8-1.7,1s-1.5,0.3-2.7,0.3L63,46L63,46z M77.2,39.1c0,1.1,0.4,2.1,1.1,2.8c0.7,0.8,1.6,1.2,2.6,1.2
	c0.9,0,1.8-0.4,2.4-1.2s1.1-1.7,1.1-2.7c0-1.1-0.4-2-1.1-2.8s-1.5-1.2-2.5-1.2s-1.8,0.4-2.6,1.1C77.5,37.1,77.2,38,77.2,39.1
	L77.2,39.1z M84.6,46v-1.7c-0.4,0.7-0.8,1.2-1.5,1.5s-1.5,0.5-2.4,0.5c-1.9,0-3.4-0.7-4.7-2c-1.2-1.4-1.9-3.1-1.9-5.1
	c0-0.9,0.1-1.9,0.5-2.7c0.3-0.8,0.8-1.6,1.4-2.3s1.3-1.2,2.1-1.6c0.8-0.3,1.6-0.5,2.6-0.5c0.9,0,1.7,0.1,2.4,0.5
	c0.7,0.3,1.2,0.8,1.6,1.5v-1.6h2.9V46H84.6L84.6,46z M99.1,37.3c-0.4-0.7-0.8-1.2-1.4-1.6s-1.2-0.5-1.9-0.5c-1,0-1.8,0.4-2.5,1.2
	s-1,1.8-1,2.9s0.3,2.1,1,2.9s1.5,1.1,2.6,1.1c0.8,0,1.5-0.2,2-0.5c0.5-0.4,0.9-0.9,1.2-1.6h3.1c-0.4,1.6-1.1,3-2.2,3.9
	s-2.4,1.4-4.1,1.4c-0.9,0-1.8-0.2-2.6-0.5c-0.8-0.4-1.5-0.9-2.2-1.6c-0.6-0.7-1.1-1.4-1.4-2.3c-0.3-0.9-0.5-1.8-0.5-2.7
	s0.1-1.9,0.5-2.7s0.8-1.6,1.4-2.2c0.7-0.8,1.4-1.3,2.2-1.7c0.8-0.4,1.7-0.6,2.7-0.6c1.5,0,2.9,0.5,4,1.4s1.9,2.2,2.2,3.8L99.1,37.3
	L99.1,37.3L99.1,37.3z M107.2,28v5.9c0.4-0.6,0.9-1.1,1.5-1.4c0.5-0.3,1.2-0.4,1.9-0.4c1.6,0,2.8,0.5,3.6,1.6c0.8,1,1.3,2.5,1.3,4.5
	V46h-2.9v-6c0-1.9-0.2-3.1-0.6-3.8s-1.1-1-2-1c-1,0-1.7,0.4-2.1,1.1c-0.4,0.7-0.7,2-0.7,3.8V46h-2.8V28H107.2L107.2,28L107.2,28z
	 M120.2,39.1c0,1.1,0.4,2.1,1.1,2.8c0.7,0.8,1.6,1.2,2.6,1.2c0.9,0,1.8-0.4,2.4-1.2c0.7-0.8,1.1-1.7,1.1-2.7c0-1.1-0.4-2-1.1-2.8
	s-1.5-1.2-2.5-1.2s-1.8,0.4-2.6,1.1C120.5,37.1,120.2,38,120.2,39.1L120.2,39.1z M127.7,46v-1.7c-0.4,0.7-0.8,1.2-1.5,1.5
	s-1.5,0.5-2.4,0.5c-1.9,0-3.4-0.7-4.7-2c-1.2-1.4-1.9-3.1-1.9-5.1c0-0.9,0.1-1.9,0.5-2.7c0.3-0.8,0.8-1.6,1.4-2.3s1.3-1.2,2.1-1.6
	s1.6-0.5,2.6-0.5c0.9,0,1.7,0.1,2.4,0.5c0.7,0.3,1.2,0.8,1.6,1.5v-1.6h2.9V46H127.7L127.7,46z M134,46V35.3h-1.9v-2.8h1.9v-4.4h2.9
	v4.4h1.9v2.8h-1.9V46H134L134,46z"/>
<path class="st3" d="M3.3,36.1h0.9c0.9,0,1.6-0.2,2.1-0.6C6.7,35,7,34.4,7,33.6c0-0.8-0.2-1.4-0.7-1.8c-0.5-0.4-1.2-0.6-2.2-0.6H3.2
	L3.3,36.1L3.3,36.1z M3.3,46H0V28h4.2c1.1,0,1.9,0.1,2.5,0.2s1.1,0.3,1.5,0.6c0.7,0.5,1.2,1.2,1.6,2c0.4,0.8,0.6,1.7,0.6,2.6
	c0,1.7-0.5,3.1-1.6,4.1S6.3,39,4.5,39H3.2L3.3,46L3.3,46z M13.5,39.1c0,1.2,0.3,2.3,0.9,3c0.7,0.7,1.5,1.1,2.6,1.1s1.9-0.4,2.6-1.1
	c0.7-0.8,1-1.8,1-3c0-1.1-0.3-2.1-1-2.8s-1.5-1.1-2.6-1.1s-1.9,0.4-2.6,1.1C13.9,37,13.5,38,13.5,39.1L13.5,39.1z M10.5,39.2
	c0-0.9,0.2-1.9,0.5-2.7s0.8-1.6,1.4-2.3c0.6-0.7,1.4-1.2,2.2-1.6c0.8-0.4,1.6-0.5,2.5-0.5s1.8,0.1,2.5,0.5s1.5,0.8,2.1,1.5
	c0.7,0.7,1.2,1.5,1.5,2.4c0.4,0.9,0.5,1.8,0.5,2.7c0,1-0.1,2-0.5,2.8c-0.3,0.8-0.8,1.6-1.4,2.3s-1.4,1.2-2.2,1.6
	c-0.8,0.4-1.7,0.5-2.6,0.5s-1.8-0.2-2.6-0.5c-0.8-0.4-1.5-0.9-2.1-1.6c-0.6-0.7-1.1-1.5-1.4-2.3C10.7,41,10.5,40.1,10.5,39.2
	L10.5,39.2z M25.6,46V28h2.9v18H25.6L25.6,46z M33.9,31.1h-2.8v-3h2.8V31.1L33.9,31.1z M31.1,46V32.4h2.8V46H31.1L31.1,46z
	 M45.6,37.3c-0.4-0.7-0.8-1.2-1.4-1.6c-0.5-0.4-1.2-0.5-1.9-0.5c-1,0-1.8,0.4-2.5,1.2s-1,1.8-1,2.9s0.3,2.1,1,2.9
	c0.7,0.8,1.5,1.1,2.6,1.1c0.8,0,1.5-0.2,2-0.5c0.5-0.4,0.9-0.9,1.2-1.6h3.1c-0.4,1.6-1.1,3-2.2,3.9c-1.1,0.9-2.4,1.4-4.1,1.4
	c-0.9,0-1.8-0.2-2.6-0.5c-0.8-0.4-1.5-0.9-2.2-1.6c-0.6-0.7-1.1-1.4-1.4-2.3c-0.3-0.9-0.5-1.8-0.5-2.7s0.1-1.9,0.5-2.7
	s0.8-1.6,1.4-2.2c0.7-0.8,1.4-1.3,2.2-1.7s1.7-0.6,2.7-0.6c1.5,0,2.9,0.5,4,1.4s1.9,2.2,2.2,3.8L45.6,37.3L45.6,37.3z M49.2,32.4
	h3.1l3.1,9.5l3.4-9.5h3.1l-6.9,18h-3l1.8-4.8L49.2,32.4L49.2,32.4z"/>
<g>
	<path class="st4" d="M57.2,61.6c0,0,0-0.1,0-0.1c0,0,0-0.1,0-0.1c0-0.1,0-0.1,0.1-0.2l0.1-0.2c0,0,0-0.1,0-0.1s0.1,0,0.1-0.1
		l0.1-0.1h0.2h0.3l0.1,0.1l0.1,0.2l0.1,0.4c0,0,0,0.1,0,0.1s0.1,0.1,0.1,0.1s0.1,0.1,0.1,0.1c0,0,0,0.1,0,0.1l0.2,0.2l0.3,0.1
		c0,0,0.1,0,0.1,0s0.1,0,0.1,0c0.1,0,0.1,0,0.2,0.1h0.8h0.8c0.1,0,0.2,0,0.3-0.1c0.1,0,0.2,0,0.3-0.1c0.1,0,0.2-0.1,0.2-0.1
		c0.3-0.1,0.6-0.2,0.8-0.3s0.5-0.3,0.7-0.5c0,0,0.1-0.1,0.1-0.1c0.1,0,0.1-0.1,0.2-0.1c0.1,0,0.1-0.1,0.2-0.1c0,0,0.1-0.1,0.1-0.1
		s0.1-0.1,0.2-0.2s0.1-0.1,0.2-0.2c0,0,0.1-0.1,0.1-0.1l0.2-0.3c0,0,0-0.1,0-0.1s0-0.1,0.1-0.2s0.1-0.1,0.1-0.2s0-0.1,0-0.1v-0.1
		v-0.1c0,0,0-0.1,0-0.1c0,0,0-0.1,0-0.1c0,0,0-0.1-0.1-0.1c0-0.1-0.1-0.1-0.1-0.1c0,0-0.1-0.1-0.1-0.1s-0.1,0-0.1,0
		c-0.1,0-0.1-0.1-0.2-0.1c0,0-0.1-0.1-0.1-0.1s-0.1,0-0.1,0l-0.3-0.2c0,0-0.1,0-0.1,0c-0.1,0-0.1,0-0.2,0c-0.1,0-0.1,0-0.2,0
		s-0.1,0-0.1,0c-0.1,0-0.2,0-0.4,0s-0.4,0-0.7,0s-0.5,0-0.8,0s-0.5,0-0.8,0s-0.5,0-0.7,0s-0.3,0-0.4,0c0,0-0.1,0-0.1,0s-0.1,0-0.2,0
		c-0.1,0-0.1,0-0.2,0s-0.1,0-0.1,0c0,0-0.1,0-0.1,0c-0.1,0-0.1-0.1-0.2-0.1c-0.1,0-0.1-0.1-0.2-0.1s-0.1-0.1-0.1-0.1
		c-0.1-0.1-0.1-0.1-0.2-0.2c0-0.1-0.1-0.1-0.1-0.2c0,0,0-0.1,0-0.1s0-0.1,0-0.1c0,0,0-0.1-0.1-0.1c0,0,0-0.1,0-0.1s0-0.1,0-0.2
		s0-0.1,0-0.2s0-0.1,0-0.1l0.2-0.4c0-0.1,0.1-0.1,0.2-0.3c0.1-0.1,0.2-0.2,0.3-0.3s0.2-0.2,0.4-0.3s0.2-0.2,0.3-0.2l0.4-0.4
		c0,0,0.1,0,0.1-0.1s0.1-0.1,0.2-0.2s0.1-0.1,0.2-0.2s0.1-0.1,0.1-0.1c0,0,0.1-0.1,0.1-0.1c0,0,0.1-0.1,0.1-0.1s0.1,0,0.1,0l0.6-0.3
		l0.4-0.2l0.5-0.2c0,0,0.1,0,0.1-0.1s0.1-0.1,0.2-0.1c0.1,0,0.1-0.1,0.2-0.1s0.1-0.1,0.1-0.1c0,0,0.1,0,0.1-0.1s0.1-0.1,0.2-0.1
		c0.1,0,0.1-0.1,0.2-0.1s0.1-0.1,0.1-0.1l0.3-0.2c0,0,0.1-0.1,0.1-0.1c0.1,0,0.1,0,0.2-0.1c0.1,0,0.1,0,0.2-0.1h0.4c0,0,0.1,0,0.1,0
		c0.1,0,0.1,0,0.2,0.1s0.2,0.1,0.3,0.2c0.1,0.1,0.2,0.2,0.3,0.3l0.1,0.2L65.4,53l-0.1,0.1c0,0-0.1,0-0.1,0c0,0-0.1,0.1-0.1,0.1
		c0,0-0.1,0.1-0.1,0.1c-0.1,0-0.2,0.1-0.3,0.1c-0.1,0-0.3,0.1-0.4,0.2s-0.3,0.1-0.4,0.1c-0.1,0-0.2,0.1-0.2,0.1c0,0-0.1,0-0.2,0
		s-0.2,0-0.2,0.1s-0.2,0-0.2,0.1s-0.1,0-0.2,0l-0.3,0.1l-0.4,0.2c0,0-0.1,0.1-0.2,0.1c-0.1,0-0.2,0.1-0.2,0.1
		c-0.1,0-0.2,0.1-0.2,0.1s-0.1,0.1-0.2,0.1c0,0-0.1,0.1-0.1,0.1S61.1,54.9,61,55s-0.1,0.1-0.2,0.1s-0.1,0.1-0.1,0.1
		s-0.1,0.1-0.1,0.1c-0.1,0-0.1,0.1-0.2,0.1c-0.1,0-0.1,0.1-0.2,0.1s-0.1,0.1-0.1,0.1c0,0-0.1,0-0.1,0.1s-0.1,0.1-0.1,0.1
		c0,0.1-0.1,0.1-0.1,0.2c0,0,0,0.1,0,0.1c0,0-0.1,0.1-0.1,0.1c0,0-0.1,0.1-0.1,0.1v0.1v0.1l0.1,0.1l0.2,0.1H63c0.1,0,0.3,0,0.4,0.1
		c0.1,0,0.2,0,0.3,0c0.1,0,0.2,0,0.2,0c0.1,0,0.1,0,0.2,0s0.2,0,0.3,0c0.1,0,0.2,0,0.3,0.1l0.4,0.1c0,0,0.1,0,0.1,0
		c0.1,0,0.1,0.1,0.2,0.1s0.1,0.1,0.2,0.1s0.1,0.1,0.1,0.1c0,0,0.1,0.1,0.1,0.1c0.1,0,0.1,0.1,0.2,0.1c0.1,0,0.1,0.1,0.2,0.1
		c0,0.1,0.1,0.2,0.1,0.3c0,0.1,0.1,0.2,0.1,0.2c0,0.1,0.1,0.1,0.1,0.1c0,0,0,0.1,0,0.1s0,0.1,0,0.1c0,0.1,0,0.1,0.1,0.2l-0.1,0.5
		v0.3c0,0.1-0.1,0.2-0.1,0.3c0,0.1-0.1,0.2-0.1,0.2c0,0.1-0.1,0.1-0.1,0.1c0,0,0,0.1,0,0.1c0,0,0,0.1-0.1,0.1c0,0-0.1,0.1-0.1,0.1
		c0,0-0.1,0.1-0.1,0.1c-0.1,0.1-0.1,0.1-0.2,0.2c-0.1,0.1-0.1,0.1-0.2,0.2c-0.1,0.1-0.1,0.1-0.1,0.1l-0.5,0.4c0,0-0.1,0.1-0.2,0.2
		c-0.1,0.1-0.2,0.2-0.3,0.2s-0.2,0.2-0.3,0.2S64,62.6,64,62.7c0,0-0.1,0-0.2,0.1s-0.2,0.1-0.2,0.2c-0.1,0.1-0.2,0.1-0.2,0.2
		s-0.1,0.1-0.2,0.1l-0.4,0.2c0,0-0.1,0-0.1,0.1c-0.1,0-0.2,0.1-0.2,0.1c0,0-0.1,0-0.2,0s-0.2,0-0.3,0.1c-0.1,0-0.2,0.1-0.3,0.1
		s-0.1,0-0.2,0l-0.4,0.1h-2.1c0,0-0.1,0-0.1-0.1c0,0-0.1,0-0.1,0s-0.1,0-0.1,0c0,0-0.1-0.1-0.2-0.1s-0.2-0.1-0.2-0.1
		c-0.1,0-0.2-0.1-0.3-0.1c0,0-0.1-0.1-0.1-0.1s-0.1-0.1-0.2-0.2s-0.1-0.1-0.2-0.2s-0.1-0.1-0.1-0.1c0-0.1-0.1-0.1-0.1-0.2
		c0,0-0.1-0.1-0.1-0.1s0-0.1,0-0.1c0-0.1,0-0.2-0.1-0.2c0-0.1,0-0.1,0-0.2s0-0.1,0-0.2V61.6z"/>
	<path class="st4" d="M68.7,62.4v-1.1v-1c0,0,0-0.1,0-0.2c0-0.1,0-0.2,0-0.3c0-0.1,0-0.2,0-0.3c0-0.1,0-0.2,0-0.2c0,0,0-0.1,0-0.2
		c0-0.1,0-0.2,0.1-0.4c0-0.1,0.1-0.3,0.1-0.4c0-0.1,0-0.2,0-0.2v-0.3v-0.3l-0.2-0.1c0,0-0.1,0-0.1,0s-0.1,0-0.2,0.1
		c-0.1,0-0.1,0.1-0.2,0.1s-0.1,0-0.1,0H68h-0.2l-0.2-0.1c0,0-0.1,0-0.1,0s-0.1,0-0.1-0.1c0,0-0.1-0.1-0.1-0.1c0-0.1-0.1-0.1-0.1-0.2
		c0,0-0.1-0.1-0.1-0.1c0,0,0-0.1,0-0.1v-0.2v-0.1c0,0,0.1-0.1,0.1-0.1c0,0,0.1-0.1,0.1-0.1s0-0.1,0-0.1c0-0.1,0.1-0.1,0.2-0.2
		s0.2-0.1,0.2-0.2c0,0,0.1,0,0.2,0c0.1,0,0.2,0,0.3,0c0.1,0,0.2,0,0.3,0c0.1,0,0.1,0,0.2,0c0.1,0,0.1,0,0.2,0s0.1,0,0.2,0
		c0.1,0,0.2,0,0.2-0.1c0.1,0,0.1-0.1,0.1-0.1c0,0,0.1-0.1,0.1-0.1s0-0.1,0-0.1c0,0,0-0.1,0-0.1c0,0,0-0.1,0-0.1c0,0,0-0.1,0-0.1
		c0-0.1,0-0.1,0-0.2c0-0.1,0-0.1,0-0.2l0.1-0.5L70,54c0,0,0-0.1,0-0.1c0-0.1,0-0.1,0-0.2c0-0.1,0-0.1,0-0.2c0-0.1,0-0.1,0-0.1
		l0.1-0.4c0-0.1,0-0.2,0-0.3s0-0.3,0.1-0.5s0-0.3,0.1-0.4s0-0.2,0-0.3l0.1-0.2c0.1-0.1,0.1-0.1,0.2-0.2c0.1-0.1,0.1-0.1,0.2-0.1
		c0.1,0,0.1,0,0.2-0.1c0,0,0.1,0,0.1,0s0.1,0,0.1,0h0.1h0.1c0.1,0,0.1,0.1,0.2,0.1c0,0,0.1,0.1,0.1,0.1c0,0,0.1,0,0.1,0l0.1,0.1
		l0.1,0.2v0.2v0.2c0,0,0,0.1,0,0.2c0,0.1,0,0.1,0,0.2c0,0,0,0.1-0.1,0.2c0,0.1-0.1,0.2-0.1,0.3s-0.1,0.2-0.1,0.3
		c0,0.1-0.1,0.1-0.1,0.2c0,0,0,0.1,0,0.1c0,0,0,0.1-0.1,0.1s0,0.1-0.1,0.1s0,0.1,0,0.1c0,0,0,0.1,0,0.2c0,0.1-0.1,0.2-0.1,0.4
		s-0.1,0.3-0.1,0.4S71,54.7,71,54.8c0,0,0,0.1,0,0.1c0,0,0,0.1,0,0.1c0,0.1,0,0.1-0.1,0.2c0,0.1,0,0.1,0.1,0.2s0.1,0.1,0.1,0.1
		c0.3,0,0.6-0.1,0.8-0.1c0.3,0,0.5,0,0.8,0h0.5l0.2,0.1l0.1,0.1v0.2v0.2l-0.1,0.2l-0.3,0.2L71,56.8c-0.1,0-0.1,0-0.2,0.1
		c0,0-0.1,0-0.1,0.1c0,0-0.1,0-0.1,0.1l-0.1,0.1c0,0,0,0.1,0,0.1s0,0.1-0.1,0.2c0,0.1,0,0.1-0.1,0.2c0,0.1,0,0.1,0,0.1s0,0.1,0,0.1
		c0,0.1,0,0.1,0,0.2c0,0.1,0,0.1,0,0.2s0,0.1,0,0.1s0,0.1,0,0.1s0,0.1,0,0.2c0,0.1,0,0.1,0,0.2s0,0.1,0,0.1c0,0.1,0,0.2,0,0.4
		s0,0.4,0,0.5c0,0.2,0,0.4,0,0.5c0,0.2,0,0.3,0,0.3c0,0.1,0,0.1,0.1,0.2c0,0.1,0,0.1,0,0.2s0,0.1,0,0.1c0,0,0,0.1,0,0.1
		c0,0,0,0.1,0,0.1c0,0.1,0,0.1,0.1,0.2l0.1,0.2c0.1,0,0.1,0.1,0.2,0.1c0,0,0.1,0.1,0.1,0.1s0.1,0,0.1,0h0.1l0.3-0.1c0,0,0.1,0,0.1,0
		s0.1,0,0.1-0.1c0,0,0.1-0.1,0.1-0.1c0.1-0.1,0.2-0.1,0.2-0.2c0.1,0,0.1-0.1,0.2-0.1c0.1,0,0.1-0.1,0.1-0.1c0.1,0,0.1-0.1,0.2-0.2
		c0.1-0.1,0.2-0.1,0.3-0.2s0.2-0.1,0.3-0.2c0.1-0.1,0.1-0.1,0.2-0.2h0.2h0.2l0.2,0.1l0.2,0.2V61v0.1c0,0,0,0-0.1,0.1
		s-0.1,0.1-0.1,0.1c-0.1,0.1-0.1,0.1-0.1,0.2s-0.1,0.1-0.1,0.1c0,0,0,0,0,0.1s0,0.1,0,0.1c0,0,0,0.1-0.1,0.1L73.1,62
		c0,0.1-0.1,0.1-0.2,0.2c-0.1,0.1-0.2,0.1-0.2,0.2s-0.2,0.1-0.2,0.2s-0.1,0.1-0.1,0.1c-0.1,0.1-0.2,0.1-0.3,0.2
		c-0.1,0-0.1,0.1-0.2,0.1S71.7,63,71.6,63c0,0-0.1,0.1-0.1,0.1s-0.1,0.1-0.2,0.1c-0.1,0-0.1,0.1-0.2,0.1c0,0-0.1,0-0.1,0.1
		c0,0-0.1,0-0.1,0s-0.1,0-0.1,0c0,0-0.1,0-0.1,0s-0.1,0-0.2,0c-0.1,0-0.1,0-0.2,0.1h-0.3h-0.3c0,0,0,0-0.1,0c0,0-0.1,0-0.1,0
		c0,0-0.1,0-0.1-0.1c0,0-0.1-0.1-0.1-0.1s-0.1-0.1-0.2-0.2C69.1,63,69.1,63,69,62.9s-0.1-0.1-0.1-0.1c0,0,0,0,0-0.1s0-0.1-0.1-0.1
		C68.7,62.6,68.7,62.5,68.7,62.4C68.7,62.5,68.7,62.5,68.7,62.4z"/>
	<path class="st4" d="M77.8,62.4L77.8,62.4l-0.3,0.3l-0.2,0.2c0,0-0.1,0-0.1,0.1c-0.1,0-0.1,0.1-0.2,0.1c-0.1,0-0.2,0.1-0.2,0.1
		c-0.1,0-0.1,0.1-0.2,0.1c-0.1,0-0.1,0-0.2,0.1c-0.1,0.1-0.1,0.1-0.2,0.1H76l-0.3-0.1c0,0-0.1,0-0.1,0c-0.1,0-0.1,0-0.2-0.1
		s-0.1,0-0.2-0.1c-0.1,0-0.1,0-0.1,0l-0.2-0.1c0-0.1-0.1-0.1-0.1-0.1c0,0-0.1-0.1-0.1-0.1s-0.1-0.1-0.1-0.1c0-0.1-0.1-0.2-0.1-0.3
		c0-0.1-0.1-0.2-0.1-0.3c0,0,0-0.1,0-0.1s0-0.1,0-0.2c0-0.1,0-0.2-0.1-0.3v-1v-0.8c0,0,0-0.1,0-0.1s0-0.2,0-0.3c0-0.1,0-0.2,0.1-0.3
		s0-0.2,0.1-0.2c0,0,0-0.1,0-0.1s0.1-0.1,0.1-0.2s0.1-0.1,0.1-0.2c0-0.1,0-0.1,0-0.1s0-0.1,0-0.1s0-0.1,0.1-0.2c0-0.1,0-0.1,0.1-0.2
		s0-0.1,0-0.1c0,0,0-0.1,0-0.1s0-0.1,0.1-0.1s0-0.1,0.1-0.1c0,0,0-0.1,0-0.1c0-0.1,0.1-0.1,0.1-0.2c0,0,0.1-0.1,0.1-0.1
		c0,0,0-0.1,0-0.1c0,0,0.1-0.1,0.1-0.2s0.1-0.2,0.2-0.3c0.1-0.1,0.1-0.2,0.2-0.4c0.1-0.1,0.1-0.1,0.2-0.2c0,0,0.1-0.1,0.1-0.1
		s0.1-0.1,0.1-0.1l0.2-0.1h0.2h0.2c0.1,0,0.1,0,0.1,0.1c0,0,0.1,0,0.1,0c0,0,0.1,0,0.1,0c0,0,0,0,0.1,0c0,0,0.1,0,0.1,0
		c0,0,0.1,0,0.1,0c0,0,0.1,0,0.1,0.1c0.1,0.1,0.1,0.1,0.2,0.2c0.1,0.1,0.1,0.1,0.2,0.2c0.1,0.1,0.1,0.1,0.1,0.1
		c0.1,0,0.2,0.1,0.3,0.1c0.1,0,0.2,0,0.3,0.1c0,0,0.1,0,0.1,0s0.1,0,0.1,0c0,0,0.1,0,0.1,0.1c0,0,0.1,0,0.1,0.1c0,0,0.1,0.1,0.1,0.1
		l0.1,0.2V57v0.3l-0.1,0.3c0,0,0,0.1,0,0.2c0,0.1,0,0.2,0,0.3c0,0.1,0,0.2,0,0.3s0,0.2,0,0.2c0,0,0,0.1,0,0.1c0,0.1,0,0.1,0,0.2
		c0,0.1,0,0.1,0,0.2s0,0.1,0,0.1v0.5v0.6c0,0,0,0.1,0,0.2c0,0.1,0,0.2,0,0.2s0,0.2,0,0.2s0,0.1,0,0.2c0,0,0,0.1,0,0.1s0,0.1,0.1,0.2
		s0,0.1,0.1,0.2c0,0.1,0,0.1,0,0.1c0,0,0,0.1,0,0.1c0,0,0,0.1,0.1,0.1c0,0,0.1,0.1,0.1,0.1c0,0,0.1,0.1,0.1,0.1c0,0,0.1,0.1,0.1,0.1
		s0.1,0,0.1,0l0.2,0.1h0.2h0.3c0,0,0.1,0,0.1,0c0,0,0.1,0,0.1,0c0,0,0.1,0,0.1,0c0.1,0,0.1-0.1,0.2-0.1c0.1,0,0.1-0.1,0.2-0.1
		c0.1,0,0.1,0,0.1,0h0.1h0.1l0.2,0.2l0.1,0.2v0.1v0.1l-0.1,0.2c0,0-0.1,0.1-0.1,0.1c-0.1,0-0.1,0.1-0.2,0.1
		c-0.1,0.1-0.1,0.1-0.2,0.1c-0.1,0-0.1,0.1-0.1,0.1c0,0-0.1,0.1-0.1,0.1c-0.1,0-0.1,0.1-0.2,0.1c-0.1,0-0.1,0-0.2,0.1
		c-0.1,0-0.1,0-0.1,0c-0.1,0-0.2,0-0.3,0.1c-0.1,0-0.1,0-0.2,0s-0.1,0-0.1,0h-0.2c-0.1,0-0.2,0-0.4-0.1s-0.2-0.1-0.3-0.2
		c0,0-0.1-0.1-0.1-0.1c-0.1,0-0.1-0.1-0.2-0.1c-0.1,0-0.1-0.1-0.2-0.1c-0.1,0-0.1-0.1-0.1-0.1l-0.2-0.2c0,0-0.1-0.1-0.1-0.1L78,62.4
		H77.8z M75.3,60.8v0.3l0.1,0.1c0,0,0,0.1,0,0.1s0,0.1,0,0.1l0.1,0.2l0.3,0.3h0.1h0.2l0.2-0.1c0.1,0,0.1-0.1,0.2-0.2
		s0.2-0.2,0.3-0.3c0.1-0.1,0.2-0.2,0.3-0.3c0.1-0.1,0.1-0.2,0.2-0.2c0,0,0-0.1,0-0.1s0-0.1,0.1-0.2c0-0.1,0-0.1,0.1-0.2s0-0.1,0-0.1
		c0,0,0-0.1,0-0.1c0,0,0-0.1,0-0.1c0-0.1,0-0.1,0.1-0.2V59v-0.8l-0.1-0.3c0,0,0-0.1,0-0.1s0-0.1-0.1-0.1l-0.1-0.2
		c0,0-0.1-0.1-0.1-0.1c0,0-0.1-0.1-0.1-0.1c0,0-0.1-0.1-0.1-0.1c0,0-0.1-0.1-0.1-0.1h-0.1c0,0-0.1,0.1-0.1,0.1c0,0-0.1,0.1-0.1,0.1
		s-0.1,0.1-0.1,0.1c0,0-0.1,0.1-0.1,0.1c0,0,0,0.1-0.1,0.1s0,0.1,0,0.1l-0.1,0.2c0,0-0.1,0.1-0.1,0.1s-0.1,0.1-0.1,0.2
		c0,0.1-0.1,0.1-0.1,0.2c0,0.1,0,0.1,0,0.1l-0.1,0.3L75.6,59l-0.1,0.1c0,0,0,0.1,0,0.1s0,0.1,0,0.1c0,0,0,0.1,0,0.1c0,0,0,0.1,0,0.1
		c0,0.1,0,0.1,0,0.2c0,0,0,0.1,0,0.2s0,0.2,0,0.3c0,0.1,0,0.2,0,0.3s0,0.1,0,0.2V60.8z"/>
	<path class="st4" d="M81.3,62.9V62c0,0,0-0.1,0-0.2c0-0.1,0-0.2,0-0.3s0-0.2,0-0.3c0-0.1,0-0.2,0-0.2v-0.3c0,0,0-0.1,0-0.1
		c0-0.1,0-0.1,0-0.2l0-0.3c0,0,0-0.1,0-0.1c0-0.1,0-0.2,0-0.3c0-0.1,0-0.2,0.1-0.3c0-0.1,0-0.2,0.1-0.3c0-0.1,0-0.2,0-0.3
		s0-0.1,0-0.1v-0.6v-0.8c0,0,0-0.1,0-0.1c0-0.1,0-0.1,0-0.2c0-0.1,0-0.2,0-0.2c0-0.1,0-0.1,0-0.1l-0.1-0.3v-0.1
		c0-0.1,0.1-0.1,0.1-0.2c0-0.1,0.1-0.2,0.1-0.2l0.1-0.3c0,0,0.1-0.1,0.1-0.1s0.1-0.1,0.1-0.1s0.1-0.1,0.1-0.1s0.1,0,0.1,0h0.3h0.4
		c0,0,0.1,0,0.1,0c0,0,0.1,0,0.1,0c0,0,0.1,0,0.1,0.1c0,0,0.1,0.1,0.1,0.1c0,0,0.1,0.1,0.1,0.1c0,0.1,0.1,0.1,0.1,0.2
		c0,0,0,0.1,0,0.2s0,0.2,0,0.3s0,0.2,0,0.3c0,0.1,0,0.2,0,0.2l0.3-0.3l0.3-0.2c0,0,0.1,0,0.1,0c0,0,0.1,0,0.1-0.1
		c0,0,0.1-0.1,0.1-0.1c0.1,0,0.1-0.1,0.2-0.1s0.2-0.1,0.3-0.1s0.2-0.1,0.2-0.1s0.1,0,0.1,0h0.1h0.2c0,0,0.1,0,0.1,0s0.1,0,0.2,0
		c0.1,0,0.1,0,0.2,0.1c0.1,0.1,0.1,0.1,0.2,0.2c0.1,0,0.1,0.1,0.2,0.1c0.1,0,0.1,0.1,0.1,0.1c0.1,0.1,0.1,0.1,0.1,0.2
		s0.1,0.1,0.1,0.2v0.1l-0.2,0.2l-0.2,0.1h-0.7l-0.1,0.1c-0.1,0-0.1,0-0.2,0c0,0-0.1,0.1-0.2,0.1s-0.2,0.1-0.3,0.1
		c-0.1,0-0.2,0.1-0.3,0.1c-0.1,0-0.2,0.1-0.2,0.1L84,57.5c0,0,0,0.1-0.1,0.1s-0.1,0.1-0.1,0.2s-0.1,0.1-0.2,0.2
		c-0.1,0.1-0.1,0.1-0.1,0.2l-0.2,0.3c0,0,0,0.1-0.1,0.1c0,0.1-0.1,0.1-0.1,0.2c0,0.1-0.1,0.1-0.1,0.2c0,0.1,0,0.1-0.1,0.1
		c0,0,0,0.1,0,0.1s0,0.1,0,0.1s0,0.1,0,0.2c0,0.1,0,0.2,0,0.3s0,0.2,0,0.4c0,0.1,0,0.2,0,0.3v0.2v0.1c0,0.1,0,0.2,0,0.2
		c0,0.1,0,0.1,0,0.2c0,0.1,0,0.1,0,0.1c0,0,0,0.1,0,0.1c0,0,0,0.1,0,0.1c0,0.1,0,0.1,0.1,0.2l0.2,0.4v0.2v0.2l-0.1,0.2
		C83.1,62.9,83,63,83,63c0,0-0.1,0.1-0.1,0.1s-0.1,0.1-0.1,0.1l-0.2,0.1c0,0-0.1,0-0.1,0c0,0-0.1,0-0.1,0c-0.1,0-0.1,0-0.2,0.1
		c0,0-0.1,0-0.1-0.1c0,0-0.1,0-0.1,0s-0.1,0-0.1,0c0,0-0.1,0-0.1,0s-0.1,0-0.1-0.1c-0.1,0-0.1-0.1-0.2-0.1L81.3,62.9z"/>
	<path class="st4" d="M87.7,62.4v-1.1v-1c0,0,0-0.1,0-0.2c0-0.1,0-0.2,0-0.3c0-0.1,0-0.2,0-0.3c0-0.1,0-0.2,0-0.2c0,0,0-0.1,0-0.2
		c0-0.1,0-0.2,0.1-0.4c0-0.1,0.1-0.3,0.1-0.4c0-0.1,0-0.2,0-0.2v-0.3v-0.3l-0.2-0.1c0,0-0.1,0-0.1,0s-0.1,0-0.2,0.1
		c-0.1,0-0.1,0.1-0.2,0.1s-0.1,0-0.1,0h-0.2h-0.2l-0.2-0.1c0,0-0.1,0-0.1,0s-0.1,0-0.1-0.1c0,0-0.1-0.1-0.1-0.1
		c0-0.1-0.1-0.1-0.1-0.2c0,0-0.1-0.1-0.1-0.1c0,0,0-0.1,0-0.1v-0.2v-0.1c0,0,0.1-0.1,0.1-0.1c0,0,0.1-0.1,0.1-0.1s0-0.1,0-0.1
		c0-0.1,0.1-0.1,0.2-0.2s0.2-0.1,0.2-0.2c0,0,0.1,0,0.2,0c0.1,0,0.2,0,0.3,0c0.1,0,0.2,0,0.3,0c0.1,0,0.1,0,0.2,0c0.1,0,0.1,0,0.2,0
		s0.1,0,0.2,0c0.1,0,0.2,0,0.2-0.1c0.1,0,0.1-0.1,0.1-0.1c0,0,0.1-0.1,0.1-0.1s0-0.1,0-0.1c0,0,0-0.1,0-0.1c0,0,0-0.1,0-0.1
		c0,0,0-0.1,0-0.1c0-0.1,0-0.1,0-0.2c0-0.1,0-0.1,0-0.2l0.1-0.5l0.1-0.3c0,0,0-0.1,0-0.1s0-0.1,0-0.2c0-0.1,0-0.1,0-0.2
		c0-0.1,0-0.1,0-0.1l0.1-0.4c0-0.1,0-0.2,0-0.3s0-0.3,0.1-0.5s0-0.3,0.1-0.4s0-0.2,0-0.3l0.1-0.2c0.1-0.1,0.1-0.1,0.2-0.2
		c0.1-0.1,0.1-0.1,0.2-0.1c0.1,0,0.1,0,0.2-0.1c0,0,0.1,0,0.1,0s0.1,0,0.1,0h0.1h0.1c0.1,0,0.1,0.1,0.2,0.1c0,0,0.1,0.1,0.1,0.1
		c0,0,0.1,0,0.1,0l0.1,0.1l0.1,0.2v0.2v0.2c0,0,0,0.1,0,0.2c0,0.1,0,0.1,0,0.2c0,0,0,0.1-0.1,0.2c0,0.1-0.1,0.2-0.1,0.3
		s-0.1,0.2-0.1,0.3c0,0.1-0.1,0.1-0.1,0.2c0,0,0,0.1,0,0.1c0,0,0,0.1-0.1,0.1s0,0.1-0.1,0.1s0,0.1,0,0.1c0,0,0,0.1,0,0.2
		c0,0.1-0.1,0.2-0.1,0.4s-0.1,0.3-0.1,0.4s-0.1,0.3-0.1,0.3c0,0,0,0.1,0,0.1c0,0,0,0.1,0,0.1c0,0.1,0,0.1-0.1,0.2
		c0,0.1,0,0.1,0.1,0.2s0.1,0.1,0.1,0.1c0.3,0,0.6-0.1,0.8-0.1c0.3,0,0.5,0,0.8,0h0.5l0.2,0.1l0.1,0.1v0.2v0.2l-0.1,0.2l-0.3,0.2
		L90,56.8c-0.1,0-0.1,0-0.2,0.1c0,0-0.1,0-0.1,0.1c0,0-0.1,0-0.1,0.1l-0.1,0.1c0,0,0,0.1,0,0.1s0,0.1-0.1,0.2c0,0.1,0,0.1-0.1,0.2
		c0,0.1,0,0.1,0,0.1s0,0.1,0,0.1c0,0.1,0,0.1,0,0.2c0,0.1,0,0.1,0,0.2s0,0.1,0,0.1s0,0.1,0,0.1s0,0.1,0,0.2c0,0.1,0,0.1,0,0.2
		s0,0.1,0,0.1c0,0.1,0,0.2,0,0.4s0,0.4,0,0.5c0,0.2,0,0.4,0,0.5s0,0.3,0,0.3c0,0.1,0,0.1,0.1,0.2c0,0.1,0,0.1,0,0.2s0,0.1,0,0.1
		c0,0,0,0.1,0,0.1c0,0,0,0.1,0,0.1c0,0.1,0,0.1,0.1,0.2l0.1,0.2c0.1,0,0.1,0.1,0.2,0.1c0,0,0.1,0.1,0.1,0.1s0.1,0,0.1,0h0.1l0.3-0.1
		c0,0,0.1,0,0.1,0s0.1,0,0.1-0.1c0,0,0.1-0.1,0.1-0.1c0.1-0.1,0.2-0.1,0.2-0.2c0.1,0,0.1-0.1,0.2-0.1c0.1,0,0.1-0.1,0.1-0.1
		c0.1,0,0.1-0.1,0.2-0.2c0.1-0.1,0.2-0.1,0.3-0.2s0.2-0.1,0.3-0.2c0.1-0.1,0.1-0.1,0.2-0.2h0.2h0.2l0.2,0.1l0.2,0.2V61v0.1
		c0,0,0,0-0.1,0.1s-0.1,0.1-0.1,0.1c-0.1,0.1-0.1,0.1-0.1,0.2s-0.1,0.1-0.1,0.1c0,0,0,0,0,0.1s0,0.1,0,0.1c0,0,0,0.1-0.1,0.1
		L92.2,62c0,0.1-0.1,0.1-0.2,0.2c-0.1,0.1-0.2,0.1-0.2,0.2s-0.2,0.1-0.2,0.2s-0.1,0.1-0.1,0.1c-0.1,0.1-0.2,0.1-0.3,0.2
		c-0.1,0-0.1,0.1-0.2,0.1S90.8,63,90.7,63c0,0-0.1,0.1-0.1,0.1s-0.1,0.1-0.2,0.1c-0.1,0-0.1,0.1-0.2,0.1c0,0-0.1,0-0.1,0.1
		c0,0-0.1,0-0.1,0s-0.1,0-0.1,0c0,0-0.1,0-0.1,0s-0.1,0-0.2,0c-0.1,0-0.1,0-0.2,0.1h-0.3h-0.3c0,0,0,0-0.1,0c0,0-0.1,0-0.1,0
		c0,0-0.1,0-0.1-0.1c0,0-0.1-0.1-0.1-0.1s-0.1-0.1-0.2-0.2c-0.1-0.1-0.1-0.1-0.2-0.2S88,62.8,88,62.8c0,0,0,0,0-0.1s0-0.1-0.1-0.1
		C87.8,62.6,87.8,62.5,87.7,62.4C87.8,62.5,87.7,62.5,87.7,62.4z"/>
	<path class="st4" d="M96.9,61.6c0,0,0-0.1,0-0.1c0,0,0-0.1,0-0.1c0-0.1,0-0.1,0.1-0.2l0.1-0.2c0,0,0-0.1,0-0.1c0,0,0.1,0,0.1-0.1
		l0.1-0.1h0.2H98l0.1,0.1l0.1,0.2l0.1,0.4c0,0,0,0.1,0,0.1s0.1,0.1,0.1,0.1c0,0,0.1,0.1,0.1,0.1c0,0,0,0.1,0,0.1l0.2,0.2l0.3,0.1
		c0,0,0.1,0,0.1,0c0,0,0.1,0,0.1,0c0.1,0,0.1,0,0.2,0.1h0.8h0.8c0.1,0,0.2,0,0.3-0.1c0.1,0,0.2,0,0.3-0.1c0.1,0,0.2-0.1,0.2-0.1
		c0.3-0.1,0.6-0.2,0.8-0.3s0.5-0.3,0.7-0.5c0,0,0.1-0.1,0.1-0.1c0.1,0,0.1-0.1,0.2-0.1c0.1,0,0.1-0.1,0.2-0.1c0,0,0.1-0.1,0.1-0.1
		s0.1-0.1,0.2-0.2s0.1-0.1,0.2-0.2c0,0,0.1-0.1,0.1-0.1l0.2-0.3c0,0,0-0.1,0-0.1s0-0.1,0.1-0.2s0.1-0.1,0.1-0.2s0-0.1,0-0.1v-0.1
		v-0.1c0,0,0-0.1,0-0.1c0,0,0-0.1,0-0.1c0,0,0-0.1-0.1-0.1c0-0.1-0.1-0.1-0.1-0.1c0,0-0.1-0.1-0.1-0.1s-0.1,0-0.1,0
		c-0.1,0-0.1-0.1-0.2-0.1c0,0-0.1-0.1-0.1-0.1s-0.1,0-0.1,0l-0.3-0.2c0,0-0.1,0-0.1,0c-0.1,0-0.1,0-0.2,0c-0.1,0-0.1,0-0.2,0
		s-0.1,0-0.1,0c-0.1,0-0.2,0-0.4,0s-0.4,0-0.7,0s-0.5,0-0.8,0c-0.3,0-0.5,0-0.8,0s-0.5,0-0.7,0s-0.3,0-0.4,0c0,0-0.1,0-0.1,0
		s-0.1,0-0.2,0c-0.1,0-0.1,0-0.2,0s-0.1,0-0.1,0c0,0-0.1,0-0.1,0c-0.1,0-0.1-0.1-0.2-0.1c-0.1,0-0.1-0.1-0.2-0.1s-0.1-0.1-0.1-0.1
		c-0.1-0.1-0.1-0.1-0.2-0.2c0-0.1-0.1-0.1-0.1-0.2c0,0,0-0.1,0-0.1s0-0.1,0-0.1c0,0,0-0.1-0.1-0.1c0,0,0-0.1,0-0.1s0-0.1,0-0.2
		s0-0.1,0-0.2s0-0.1,0-0.1l0.2-0.4c0-0.1,0.1-0.1,0.2-0.3c0.1-0.1,0.2-0.2,0.3-0.3s0.2-0.2,0.4-0.3s0.2-0.2,0.3-0.2l0.4-0.4
		c0,0,0.1,0,0.1-0.1s0.1-0.1,0.2-0.2c0.1-0.1,0.1-0.1,0.2-0.2s0.1-0.1,0.1-0.1c0,0,0.1-0.1,0.1-0.1c0,0,0.1-0.1,0.1-0.1
		c0,0,0.1,0,0.1,0l0.6-0.3l0.4-0.2l0.5-0.2c0,0,0.1,0,0.1-0.1c0,0,0.1-0.1,0.2-0.1c0.1,0,0.1-0.1,0.2-0.1s0.1-0.1,0.1-0.1
		c0,0,0.1,0,0.1-0.1c0.1,0,0.1-0.1,0.2-0.1c0.1,0,0.1-0.1,0.2-0.1s0.1-0.1,0.1-0.1l0.3-0.2c0,0,0.1-0.1,0.1-0.1c0.1,0,0.1,0,0.2-0.1
		c0.1,0,0.1,0,0.2-0.1h0.4c0,0,0.1,0,0.1,0c0.1,0,0.1,0,0.2,0.1s0.2,0.1,0.3,0.2c0.1,0.1,0.2,0.2,0.3,0.3l0.1,0.2l-0.1,0.3l-0.1,0.1
		c0,0-0.1,0-0.1,0c0,0-0.1,0.1-0.1,0.1c0,0-0.1,0.1-0.1,0.1c-0.1,0-0.2,0.1-0.3,0.1c-0.1,0-0.3,0.1-0.4,0.2s-0.3,0.1-0.4,0.1
		c-0.1,0-0.2,0.1-0.2,0.1c0,0-0.1,0-0.2,0s-0.2,0-0.2,0.1s-0.2,0-0.2,0.1s-0.1,0-0.2,0l-0.3,0.1l-0.4,0.2c0,0-0.1,0.1-0.2,0.1
		c-0.1,0-0.2,0.1-0.2,0.1c-0.1,0-0.2,0.1-0.2,0.1s-0.1,0.1-0.2,0.1c0,0-0.1,0.1-0.1,0.1s-0.1,0.1-0.2,0.1s-0.1,0.1-0.2,0.1
		s-0.1,0.1-0.1,0.1s-0.1,0.1-0.1,0.1c-0.1,0-0.1,0.1-0.2,0.1c-0.1,0-0.1,0.1-0.2,0.1c-0.1,0-0.1,0.1-0.1,0.1c0,0-0.1,0-0.1,0.1
		s-0.1,0.1-0.1,0.1c0,0.1-0.1,0.1-0.1,0.2c0,0,0,0.1,0,0.1c0,0-0.1,0.1-0.1,0.1c0,0-0.1,0.1-0.1,0.1v0.1v0.1l0.1,0.1l0.2,0.1h3.1
		c0.1,0,0.3,0,0.4,0.1c0.1,0,0.2,0,0.3,0c0.1,0,0.2,0,0.2,0c0.1,0,0.1,0,0.2,0s0.2,0,0.3,0c0.1,0,0.2,0,0.3,0.1l0.4,0.1
		c0,0,0.1,0,0.1,0c0.1,0,0.1,0.1,0.2,0.1s0.1,0.1,0.2,0.1s0.1,0.1,0.1,0.1c0,0,0.1,0.1,0.1,0.1c0.1,0,0.1,0.1,0.2,0.1
		c0.1,0,0.1,0.1,0.2,0.1c0,0.1,0.1,0.2,0.1,0.3c0,0.1,0.1,0.2,0.1,0.2c0,0.1,0.1,0.1,0.1,0.1c0,0,0,0.1,0,0.1s0,0.1,0,0.1
		c0,0.1,0,0.1,0.1,0.2l-0.1,0.5v0.3c0,0.1-0.1,0.2-0.1,0.3c0,0.1-0.1,0.2-0.1,0.2c0,0.1-0.1,0.1-0.1,0.1c0,0,0,0.1,0,0.1
		c0,0,0,0.1-0.1,0.1c0,0-0.1,0.1-0.1,0.1c0,0-0.1,0.1-0.1,0.1c-0.1,0.1-0.1,0.1-0.2,0.2c-0.1,0.1-0.1,0.1-0.2,0.2
		c-0.1,0.1-0.1,0.1-0.1,0.1l-0.5,0.4c0,0-0.1,0.1-0.2,0.2c-0.1,0.1-0.2,0.2-0.3,0.2s-0.2,0.2-0.3,0.2s-0.1,0.1-0.2,0.2
		c0,0-0.1,0-0.2,0.1s-0.2,0.1-0.2,0.2c-0.1,0.1-0.2,0.1-0.2,0.2s-0.1,0.1-0.2,0.1l-0.4,0.2c0,0-0.1,0-0.1,0.1
		c-0.1,0-0.2,0.1-0.2,0.1c0,0-0.1,0-0.2,0s-0.2,0-0.3,0.1c-0.1,0-0.2,0.1-0.3,0.1s-0.1,0-0.2,0l-0.4,0.1h-2.1c0,0-0.1,0-0.1-0.1
		c0,0-0.1,0-0.1,0s-0.1,0-0.1,0c0,0-0.1-0.1-0.2-0.1c-0.1,0-0.2-0.1-0.2-0.1c-0.1,0-0.2-0.1-0.3-0.1c0,0-0.1-0.1-0.1-0.1
		s-0.1-0.1-0.2-0.2c-0.1-0.1-0.1-0.1-0.2-0.2s-0.1-0.1-0.1-0.1c0-0.1-0.1-0.1-0.1-0.2c0,0-0.1-0.1-0.1-0.1s0-0.1,0-0.1
		c0-0.1,0-0.2-0.1-0.2c0-0.1,0-0.1,0-0.2s0-0.1,0-0.2V61.6z"/>
	<path class="st4" d="M111.2,62.4L111.2,62.4l-0.3,0.3l-0.2,0.2c0,0-0.1,0-0.1,0.1c-0.1,0-0.1,0.1-0.2,0.1c-0.1,0-0.2,0.1-0.2,0.1
		c-0.1,0-0.1,0.1-0.2,0.1c-0.1,0-0.1,0-0.2,0.1c-0.1,0.1-0.1,0.1-0.2,0.1h-0.1l-0.3-0.1c0,0-0.1,0-0.1,0c-0.1,0-0.1,0-0.2-0.1
		s-0.1,0-0.2-0.1c-0.1,0-0.1,0-0.1,0l-0.2-0.1c0-0.1-0.1-0.1-0.1-0.1c0,0-0.1-0.1-0.1-0.1s-0.1-0.1-0.1-0.1c0-0.1-0.1-0.2-0.1-0.3
		c0-0.1-0.1-0.2-0.1-0.3c0,0,0-0.1,0-0.1s0-0.1,0-0.2c0-0.1,0-0.2-0.1-0.3v-1v-0.8c0,0,0-0.1,0-0.1s0-0.2,0-0.3c0-0.1,0-0.2,0.1-0.3
		s0-0.2,0.1-0.2c0,0,0-0.1,0-0.1s0.1-0.1,0.1-0.2s0.1-0.1,0.1-0.2c0-0.1,0-0.1,0-0.1s0-0.1,0-0.1s0-0.1,0.1-0.2c0-0.1,0-0.1,0.1-0.2
		s0-0.1,0-0.1c0,0,0-0.1,0-0.1s0-0.1,0.1-0.1s0-0.1,0.1-0.1c0,0,0-0.1,0-0.1c0-0.1,0.1-0.1,0.1-0.2c0,0,0.1-0.1,0.1-0.1
		c0,0,0-0.1,0-0.1c0,0,0.1-0.1,0.1-0.2s0.1-0.2,0.2-0.3c0.1-0.1,0.1-0.2,0.2-0.4c0.1-0.1,0.1-0.1,0.2-0.2c0,0,0.1-0.1,0.1-0.1
		s0.1-0.1,0.1-0.1l0.2-0.1h0.2h0.2c0.1,0,0.1,0,0.1,0.1c0,0,0.1,0,0.1,0c0,0,0.1,0,0.1,0c0,0,0,0,0.1,0c0,0,0.1,0,0.1,0
		c0,0,0.1,0,0.1,0c0,0,0.1,0,0.1,0.1c0.1,0.1,0.1,0.1,0.2,0.2c0.1,0.1,0.1,0.1,0.2,0.2c0.1,0.1,0.1,0.1,0.1,0.1
		c0.1,0,0.2,0.1,0.3,0.1c0.1,0,0.2,0,0.3,0.1c0,0,0.1,0,0.1,0s0.1,0,0.1,0c0,0,0.1,0,0.1,0.1c0,0,0.1,0,0.1,0.1c0,0,0.1,0.1,0.1,0.1
		l0.1,0.2V57v0.3l-0.1,0.3c0,0,0,0.1,0,0.2c0,0.1,0,0.2,0,0.3c0,0.1,0,0.2,0,0.3s0,0.2,0,0.2c0,0,0,0.1,0,0.1c0,0.1,0,0.1,0,0.2
		c0,0.1,0,0.1,0,0.2s0,0.1,0,0.1v0.5v0.6c0,0,0,0.1,0,0.2c0,0.1,0,0.2,0,0.2s0,0.2,0,0.2s0,0.1,0,0.2c0,0,0,0.1,0,0.1s0,0.1,0.1,0.2
		s0,0.1,0.1,0.2c0,0.1,0,0.1,0,0.1c0,0,0,0.1,0,0.1c0,0,0,0.1,0.1,0.1c0,0,0.1,0.1,0.1,0.1c0,0,0.1,0.1,0.1,0.1c0,0,0.1,0.1,0.1,0.1
		s0.1,0,0.1,0l0.2,0.1h0.2h0.3c0,0,0.1,0,0.1,0c0,0,0.1,0,0.1,0c0,0,0.1,0,0.1,0c0.1,0,0.1-0.1,0.2-0.1c0.1,0,0.1-0.1,0.2-0.1
		c0.1,0,0.1,0,0.1,0h0.1h0.1l0.2,0.2l0.1,0.2v0.1v0.1l-0.1,0.2c0,0-0.1,0.1-0.1,0.1c-0.1,0-0.1,0.1-0.2,0.1
		c-0.1,0.1-0.1,0.1-0.2,0.1c-0.1,0-0.1,0.1-0.1,0.1c0,0-0.1,0.1-0.1,0.1c-0.1,0-0.1,0.1-0.2,0.1c-0.1,0-0.1,0-0.2,0.1
		c-0.1,0-0.1,0-0.1,0c-0.1,0-0.2,0-0.3,0.1c-0.1,0-0.1,0-0.2,0s-0.1,0-0.1,0h-0.2c-0.1,0-0.2,0-0.4-0.1s-0.2-0.1-0.3-0.2
		c0,0-0.1-0.1-0.1-0.1c-0.1,0-0.1-0.1-0.2-0.1c-0.1,0-0.1-0.1-0.2-0.1c-0.1,0-0.1-0.1-0.1-0.1l-0.2-0.2c0,0-0.1-0.1-0.1-0.1
		l-0.1-0.2H111.2z M108.8,60.8v0.3l0.1,0.1c0,0,0,0.1,0,0.1s0,0.1,0,0.1l0.1,0.2l0.3,0.3h0.1h0.2l0.2-0.1c0.1,0,0.1-0.1,0.2-0.2
		s0.2-0.2,0.3-0.3c0.1-0.1,0.2-0.2,0.3-0.3c0.1-0.1,0.1-0.2,0.2-0.2c0,0,0-0.1,0-0.1s0-0.1,0.1-0.2c0-0.1,0-0.1,0.1-0.2s0-0.1,0-0.1
		c0,0,0-0.1,0-0.1c0,0,0-0.1,0-0.1c0-0.1,0-0.1,0.1-0.2V59v-0.8l-0.1-0.3c0,0,0-0.1,0-0.1s0-0.1-0.1-0.1l-0.1-0.2
		c0,0-0.1-0.1-0.1-0.1c0,0-0.1-0.1-0.1-0.1c0,0-0.1-0.1-0.1-0.1c0,0-0.1-0.1-0.1-0.1h-0.1c0,0-0.1,0.1-0.1,0.1c0,0-0.1,0.1-0.1,0.1
		s-0.1,0.1-0.1,0.1c0,0-0.1,0.1-0.1,0.1c0,0,0,0.1-0.1,0.1s0,0.1,0,0.1l-0.1,0.2c0,0-0.1,0.1-0.1,0.1s-0.1,0.1-0.1,0.2
		c0,0.1-0.1,0.1-0.1,0.2c0,0.1,0,0.1,0,0.1l-0.1,0.3l-0.1,0.2l-0.1,0.1c0,0,0,0.1,0,0.1s0,0.1,0,0.1c0,0,0,0.1,0,0.1
		c0,0,0,0.1,0,0.1c0,0.1,0,0.1,0,0.2c0,0,0,0.1,0,0.2s0,0.2,0,0.3c0,0.1,0,0.2,0,0.3s0,0.1,0,0.2V60.8z"/>
	<path class="st4" d="M113.9,56v-0.2c0,0,0-0.1,0.1-0.2s0.1-0.2,0.1-0.2l0.1-0.1c0,0,0.1,0,0.1,0s0.1,0,0.1-0.1c0,0,0.1-0.1,0.1-0.1
		l0.3-0.1h0.2h0.2c0,0,0.1,0,0.1,0s0.1,0,0.1,0c0,0,0.1,0,0.1,0.1c0,0,0.1,0.1,0.1,0.1c0,0,0.1,0.1,0.1,0.1s0.1,0.1,0.1,0.1l0.2,0.3
		v1.1c0,0,0,0.1,0.1,0.3c0,0.2,0.1,0.4,0.2,0.6s0.1,0.5,0.2,0.7c0.1,0.2,0.1,0.4,0.1,0.6c0,0,0,0.1,0.1,0.1c0,0,0,0.1,0,0.1
		c0,0,0,0.1,0,0.1c0,0.1,0.1,0.1,0.1,0.2c0,0.1,0.1,0.2,0.1,0.3s0.1,0.2,0.1,0.3c0,0.1,0.1,0.2,0.1,0.2h0.1l0.1-0.1c0,0,0-0.1,0-0.1
		c0-0.1,0.1-0.1,0.1-0.2s0.1-0.1,0.1-0.2s0-0.1,0-0.1c0,0,0-0.1,0-0.1c0-0.1,0-0.1,0.1-0.2c0-0.1,0.1-0.1,0.1-0.2c0-0.1,0-0.1,0-0.1
		s0-0.1,0-0.1c0,0,0-0.1,0.1-0.1s0-0.1,0.1-0.1c0,0,0-0.1,0-0.1c0,0,0-0.1,0-0.1c0-0.1,0-0.2,0.1-0.2c0-0.1,0.1-0.2,0.1-0.3
		c0-0.1,0-0.1,0-0.2c0,0,0-0.1,0.1-0.2c0-0.1,0.1-0.3,0.1-0.4c0-0.2,0.1-0.3,0.1-0.4c0-0.1,0.1-0.2,0.1-0.2c0,0,0-0.1,0-0.1
		c0-0.1,0-0.1,0.1-0.2c0-0.1,0.1-0.1,0.1-0.2s0-0.1,0-0.1c0,0,0-0.1,0-0.1c0-0.1,0-0.1,0.1-0.2c0-0.1,0.1-0.1,0.1-0.2s0-0.1,0-0.1
		l0.1-0.2c0,0,0.1-0.1,0.1-0.1s0.1-0.1,0.1-0.1l0.1-0.1c0,0,0.1,0,0.1,0s0.1,0,0.1-0.1s0.1,0,0.1-0.1c0,0,0.1,0,0.1,0h0.1h0.1
		c0,0,0.1,0,0.1,0c0,0,0.1,0,0.1,0.1c0.1,0,0.1,0.1,0.2,0.1l0.1,0.2v0.1c0,0.1,0,0.1-0.1,0.2c0,0,0,0.1,0,0.1s0,0.1,0,0.1
		c0,0.1-0.1,0.2-0.1,0.4c-0.1,0.1-0.1,0.2-0.2,0.3c-0.1,0.1-0.1,0.2-0.2,0.3s-0.1,0.2-0.2,0.4c0,0,0,0.1,0,0.1c0,0,0,0.1-0.1,0.1
		s0,0.1-0.1,0.1c0,0,0,0.1,0,0.1c0,0-0.1,0.1-0.1,0.3s-0.1,0.3-0.2,0.5s-0.1,0.4-0.2,0.6c-0.1,0.2-0.1,0.4-0.2,0.6
		c-0.1,0.2-0.1,0.3-0.2,0.5s-0.1,0.2-0.1,0.3c0,0,0,0.1,0,0.1c0,0,0,0.1-0.1,0.1s0,0.1-0.1,0.1c0,0,0,0.1,0,0.1c0,0,0,0.1,0,0.2
		s0,0.2-0.1,0.3c0,0.1-0.1,0.2-0.1,0.3s0,0.2,0,0.2c0,0,0,0.1,0,0.2s0,0.2,0,0.3c0,0.1,0,0.2,0,0.3c0,0.1,0,0.1,0,0.2
		c0,0,0,0.1,0,0.1s0,0.1,0,0.1c0,0,0,0.1-0.1,0.1c0,0,0,0.1-0.1,0.1s-0.1,0.1-0.2,0.2c-0.1,0.1-0.1,0.1-0.2,0.2
		c-0.1,0.1-0.1,0.1-0.1,0.1l-0.3,0.4H117h-0.3l-0.1-0.1l-0.2-0.3c0,0,0-0.1,0-0.1c0,0,0-0.1-0.1-0.1c0-0.1-0.1-0.1-0.1-0.2
		c0,0,0-0.1,0-0.1c0-0.1-0.1-0.2-0.1-0.2c0-0.1-0.1-0.2-0.1-0.3c0-0.1,0-0.2,0-0.2c0,0,0-0.1,0-0.1s0-0.2-0.1-0.2
		c0-0.1-0.1-0.2-0.1-0.2c0-0.1,0-0.1,0-0.1l-0.1-0.3c0,0,0-0.1,0-0.1c0-0.1,0-0.2-0.1-0.2c0-0.1-0.1-0.2-0.1-0.2c0-0.1,0-0.1,0-0.1
		s0-0.1,0-0.2s0-0.2-0.1-0.3c0-0.1-0.1-0.2-0.1-0.3c0-0.1,0-0.1,0-0.2c0,0,0-0.1-0.1-0.1c0,0,0-0.1,0-0.1c0,0,0-0.1,0-0.1
		c0,0,0-0.1,0-0.2c0-0.1-0.1-0.2-0.1-0.2s-0.1-0.2-0.1-0.2s0-0.1,0-0.1l-0.1-0.5c-0.1-0.1-0.1-0.2-0.2-0.3c-0.1-0.1-0.1-0.2-0.2-0.3
		c0,0,0-0.1-0.1-0.1c0-0.1-0.1-0.1-0.1-0.2s-0.1-0.1-0.1-0.2c0-0.1-0.1-0.1-0.1-0.1V56z"/>
	<path class="st4" d="M121.7,62.6c0-0.1,0-0.2,0-0.4s0-0.4,0-0.6c0-0.2,0-0.4,0-0.6s0-0.3,0-0.4c0-0.1,0-0.2-0.1-0.3
		c0-0.1,0-0.2,0-0.3s0-0.2,0-0.2c0,0,0-0.1,0-0.2c0-0.1,0-0.2,0-0.2c0-0.1,0-0.2-0.1-0.3l-0.1-0.4V58l-0.2-0.4c0,0,0-0.1,0-0.1
		c0,0,0-0.1,0-0.1c0,0,0-0.1-0.1-0.1v-0.4v-0.3c0,0,0-0.1,0-0.1s0.1-0.1,0.1-0.2s0.1-0.1,0.1-0.1s0.1-0.1,0.1-0.1
		c0,0,0.1-0.1,0.1-0.1c0,0,0.1-0.1,0.1-0.1s0.1,0,0.1,0l0.2-0.1c0,0,0.1,0,0.1,0c0,0,0.1,0,0.1,0c0.1,0,0.1,0,0.2-0.1
		c0,0,0.1,0,0.1,0s0.1,0.1,0.2,0.1s0.1,0.1,0.2,0.1c0.1,0,0.1,0.1,0.1,0.1l0.2,0.2c0,0,0,0.1,0,0.1c0,0,0,0.1,0.1,0.1s0,0.1,0.1,0.1
		c0,0,0,0.1,0,0.1v0.1v0.1c0,0,0,0.1,0,0.1c0,0.1,0,0.1-0.1,0.2s0,0.2-0.1,0.2c0,0.1,0,0.1,0,0.1c0,0,0,0.1,0,0.1s0,0.1,0,0.2
		c0,0.1,0,0.1-0.1,0.2v0.9v1c0,0,0,0.1,0,0.1c0,0.1,0,0.1,0,0.2s0,0.1,0,0.2s0,0.1,0,0.1c0,0,0,0.1,0,0.1s0.1,0.1,0.1,0.2
		s0.1,0.1,0.1,0.2s0,0.1,0,0.1s0,0.1,0,0.1s0,0.1,0,0.1c0,0,0,0.1,0.1,0.1v0.1v0.2c0,0,0,0.1,0,0.1s0,0.1,0,0.2c0,0.1,0,0.2-0.1,0.3
		c0,0,0,0.1-0.1,0.1c0,0,0,0.1-0.1,0.1s0,0.1-0.1,0.1c0,0-0.1,0.1-0.1,0.1s-0.1,0.1-0.1,0.1l-0.1,0.1h-0.3h-0.4l-0.2-0.1l-0.1-0.1
		L121.7,62.6z M121.2,52.9v-0.2c0-0.1,0-0.2,0.1-0.3s0.1-0.2,0.1-0.3l0.1-0.2l0.1-0.1c0,0,0.1-0.1,0.2-0.1c0.1,0,0.1-0.1,0.2-0.1
		c0.1,0,0.2-0.1,0.3-0.1c0,0,0.1,0,0.1,0.1c0.1,0,0.2,0.1,0.2,0.1c0,0,0.1,0,0.1,0.1c0.1,0,0.1,0.1,0.2,0.1c0,0,0.1,0.1,0.1,0.1
		s0.1,0.1,0.1,0.1c0.1,0,0.1,0.1,0.2,0.1v0.3v0.3c-0.1,0.1-0.1,0.1-0.2,0.2c0,0-0.1,0.1-0.1,0.1c-0.1,0.1-0.1,0.1-0.1,0.1
		c-0.1,0.1-0.1,0.1-0.2,0.2c-0.1,0-0.2,0.1-0.2,0.1H122h-0.4l-0.2-0.1l-0.1-0.2V52.9z"/>
	<path class="st4" d="M125,62.3v-0.2c0,0,0-0.1,0-0.1c0,0,0-0.1,0.1-0.1c0,0,0.1-0.1,0.1-0.1s0-0.1,0-0.1l0.1-1.1l-0.1-1l0.1-0.5
		l-0.1-1.6c0,0,0-0.1,0-0.3s0-0.3-0.1-0.4c0-0.1-0.1-0.3-0.1-0.4c0-0.1,0-0.2,0-0.3v-0.1c0,0,0-0.1,0-0.1s0-0.1,0-0.2s0-0.1,0-0.2
		s0-0.1,0-0.1l0.3-0.2l0.2-0.1h0.2h0.2c0.1,0,0.2,0.1,0.3,0.1c0.1,0,0.1,0.1,0.2,0.1s0.1,0.1,0.1,0.1l0.1,0.1l0.1,0.2v0.1l-0.1,0.4
		c0,0,0,0.1,0,0.1c0,0.1,0,0.1,0,0.2c0,0.1,0,0.2,0,0.2s0,0.1,0,0.2v0.1v0.1l0,0.3h0.1L127,57c0,0,0-0.1,0.1-0.1s0.1-0.1,0.1-0.1
		c0,0,0.1-0.1,0.1-0.1s0.1-0.1,0.1-0.1l0.2-0.3c0-0.1,0.1-0.1,0.1-0.1c0,0,0.1-0.1,0.1-0.1c0,0,0.1,0,0.1,0c0,0,0-0.1,0.1-0.1
		c0,0,0.1-0.1,0.1-0.1s0.1-0.1,0.1-0.1s0.1,0,0.1,0h0.1c0,0,0.1,0,0.1,0c0,0,0.1,0,0.1,0.1c0,0,0.1,0.1,0.1,0.1c0,0,0.1,0.1,0.1,0.1
		c0,0,0.1,0.1,0.1,0.1c0,0,0.1,0.1,0.1,0.1c0,0,0.1,0.1,0.1,0.1c0.1,0.1,0.1,0.1,0.2,0.1c0,0,0.1,0.1,0.1,0.1c0,0,0,0.1,0,0.1
		l0.1,0.2c0,0.1,0.1,0.1,0.1,0.2s0.1,0.2,0.1,0.3s0.1,0.2,0.1,0.3s0,0.1,0,0.2s0,0.1,0,0.1c0,0.1,0,0.1,0.1,0.2
		c0,0.1,0.1,0.2,0.1,0.2s0,0.1,0,0.2c0,0,0,0.1,0,0.1s0,0.2,0,0.3s0,0.2,0.1,0.3c0,0.1,0,0.2,0.1,0.3c0,0.1,0,0.2,0,0.3
		c0,0.1,0,0.1,0,0.1c0,0,0,0.1,0.1,0.2c0,0.1,0.1,0.2,0.1,0.2l0.1,0.3c0,0,0,0.1,0,0.1c0,0.1,0,0.1,0,0.2c0,0.1,0,0.1,0,0.2
		c0,0.1,0,0.1,0,0.1c0,0,0,0.1,0,0.1s0,0.1,0,0.1c0,0,0,0.1,0.1,0.1c0,0,0,0.1,0.1,0.1s0.1,0.1,0.1,0.2c0,0.1,0.1,0.1,0.1,0.2
		s0.1,0.1,0.1,0.1l0.1,0.2v0.2v0.1c0,0,0,0.1,0,0.1c0,0,0,0.1-0.1,0.1c0,0.1-0.1,0.1-0.1,0.2c-0.1,0-0.1,0.1-0.2,0.1
		c0,0-0.1,0-0.1,0.1s-0.1,0-0.1,0l-0.3,0.1h-0.1c0,0,0,0-0.1,0s-0.1,0-0.1,0c0,0-0.1,0-0.1-0.1c0,0-0.1-0.1-0.1-0.1
		c0,0-0.1,0-0.1-0.1c0,0-0.1,0-0.1,0l-0.2-0.2c0-0.1-0.1-0.2-0.1-0.3c0-0.1,0-0.1-0.1-0.2s0-0.1,0-0.1c0,0,0-0.1,0-0.1
		c0,0,0-0.1,0-0.1c0,0,0-0.1-0.1-0.1v-0.4l-0.1-0.4c0,0,0-0.1,0-0.2c0-0.1,0-0.2,0-0.3c0-0.1,0-0.2,0-0.3c0-0.1,0-0.1,0-0.2
		c0-0.1,0-0.2-0.1-0.3c0-0.1,0-0.2-0.1-0.2c0-0.1,0-0.1-0.1-0.2l-0.1-0.3c0,0,0-0.1,0-0.1c0-0.1,0-0.2,0-0.2c0-0.1,0-0.2,0-0.2
		c0-0.1,0-0.1,0-0.2c0,0,0-0.1,0-0.1s0-0.1-0.1-0.2s-0.1-0.1-0.1-0.2c0-0.1-0.1-0.1-0.1-0.1l-0.2-0.2h-0.1l-0.1,0.1
		c0,0-0.1,0.1-0.1,0.1c0,0-0.1,0.1-0.1,0.1l-0.1,0.1c0,0-0.1,0.1-0.1,0.1c0,0,0,0.1,0,0.1l-0.4,0.2c-0.1,0.3-0.2,0.6-0.3,0.8
		c-0.1,0.3-0.1,0.5-0.2,0.8v0.6c0,0.1,0,0.2,0,0.5c0,0.2,0,0.5,0,0.7c0,0.2,0,0.3,0,0.5s0,0.3,0,0.3c0,0-0.1,0.1-0.1,0.1
		c-0.1,0.1-0.1,0.1-0.2,0.2s-0.1,0.1-0.2,0.2c-0.1,0.1-0.1,0.1-0.1,0.1l-0.2,0.1h-0.2h-0.2c0,0-0.1,0-0.1,0s-0.1,0-0.1,0
		c0,0-0.1,0-0.1-0.1c0-0.1-0.1-0.1-0.1-0.2c0,0-0.1-0.1-0.1-0.1s0-0.1,0-0.1c0,0,0-0.1,0-0.1s0-0.1,0-0.1c0,0,0-0.1-0.1-0.1V62.3z"
		/>
	<path class="st4" d="M131.7,66.2v-0.6l0.2-0.2h0.1h0.1l0.1,0.2c0,0,0,0.1,0,0.1s0,0.1,0,0.2s0,0.1,0,0.2s0,0.1,0,0.1
		c0.1,0.1,0.1,0.2,0.2,0.4c0.1,0.1,0.1,0.3,0.2,0.4c0,0,0.1,0.1,0.1,0.1s0.1,0.1,0.1,0.2c0,0.1,0.1,0.1,0.1,0.2s0.1,0.1,0.1,0.1
		c0.1,0.1,0.1,0.2,0.2,0.3c0.1,0.1,0.1,0.2,0.2,0.2c0,0,0,0,0.1,0.1s0,0,0.1,0c0.1,0.1,0.1,0.1,0.2,0.1c0.1,0.1,0.1,0.1,0.2,0.1
		c0,0,0.1,0,0.2,0.1h0.4h0.4c0.1,0,0.1,0,0.2-0.1c0.1,0,0.2-0.1,0.2-0.1l0.2-0.1c0,0,0.1-0.1,0.1-0.1s0.1-0.1,0.1-0.1l0.1-0.1
		c0,0,0.1-0.1,0.1-0.1c0-0.1,0.1-0.1,0.1-0.2c0-0.1,0.1-0.2,0.1-0.2c0,0,0-0.1,0.1-0.1s0-0.1,0.1-0.1c0,0,0-0.1,0.1-0.2
		c0-0.1,0.1-0.2,0.1-0.4c0-0.1,0.1-0.3,0.1-0.4s0.1-0.2,0.1-0.3c0,0,0-0.1,0-0.1s0-0.1,0-0.2c0-0.1,0-0.2,0-0.2s0-0.1,0-0.1
		c0,0,0-0.1,0-0.1c0,0,0-0.1,0-0.1s0-0.1,0-0.1c0,0,0-0.1,0-0.1v-2.2l-0.1-0.2c0-0.1,0-0.1,0-0.2c0-0.1,0-0.1,0-0.1l-0.1-0.2
		l-1.2,1.2c0,0-0.1,0.1-0.1,0.1s-0.1,0.1-0.1,0.1c-0.1,0-0.1,0.1-0.2,0.1c-0.1,0-0.1,0.1-0.1,0.1c0,0-0.1,0.1-0.1,0.1
		c-0.1,0-0.1,0.1-0.2,0.1s-0.1,0.1-0.2,0.1c-0.1,0-0.1,0-0.1,0h-0.4h-0.5c-0.1,0-0.1,0-0.2-0.1c0,0-0.1,0-0.1-0.1s-0.1,0-0.1-0.1
		l-0.1-0.1l-0.2-0.3l-0.1-0.2c0,0,0-0.1,0-0.1s0-0.1,0-0.1s0-0.1,0-0.1s0-0.1,0-0.1c0-0.1,0-0.1,0-0.2s0-0.1,0-0.2
		c0-0.1,0-0.2,0-0.3c0-0.1,0-0.2,0-0.2s0-0.1,0-0.2c0-0.1,0-0.2,0-0.3l0-0.4l0.1-0.2c0-0.1,0-0.1,0-0.2s0-0.1,0-0.2c0,0,0-0.1,0-0.1
		c0-0.1,0-0.1,0-0.2l0.1-0.2c0,0,0-0.1,0-0.1s0-0.1,0.1-0.2c0,0,0-0.1,0-0.1s0-0.1,0.1-0.1l0.1-0.3l0.2-0.4c0,0,0.1-0.1,0.1-0.2
		c0-0.1,0.1-0.2,0.1-0.4s0.1-0.3,0.1-0.4c0-0.1,0.1-0.2,0.1-0.2c0,0,0.1-0.1,0.1-0.2c0.1-0.1,0.1-0.2,0.2-0.3
		c0.1-0.1,0.1-0.2,0.2-0.3c0.1-0.1,0.1-0.2,0.2-0.2c0,0,0.1-0.1,0.1-0.1s0.1-0.1,0.2-0.2s0.1-0.1,0.2-0.2c0.1-0.1,0.1-0.1,0.1-0.1
		c0,0,0.1,0,0.1,0c0.1,0,0.2,0,0.2-0.1c0.1,0,0.2-0.1,0.3-0.1c0.1,0,0.2-0.1,0.2-0.1h0.1h0.1l0.2,0.1c0,0,0.1,0.1,0.2,0.1
		s0.2,0.1,0.3,0.2c0.1,0.1,0.2,0.1,0.3,0.2s0.1,0.1,0.2,0.1l0.3,0.2c0,0,0.1,0.1,0.1,0.1s0.1,0.1,0.1,0.1l0.2,0.1
		c0,0,0.1,0.1,0.1,0.1s0.1,0.1,0.2,0.2c0.1,0.1,0.1,0.2,0.2,0.2c0,0.1,0.1,0.1,0.1,0.1v0.2v0.2c0,0,0,0.1,0,0.1s0,0.1,0,0.2
		c0,0.1,0,0.2,0,0.2s0,0.1,0,0.1c0,0,0,0.1,0,0.2s-0.1,0.2-0.1,0.3s-0.1,0.2-0.1,0.3s0,0.1,0,0.2v0.4v0.6c0,0.1,0,0.2,0,0.3
		c0,0.2,0,0.3,0,0.5c0,0.2,0,0.3,0,0.5c0,0.1,0,0.2,0,0.3c0,0,0,0.1,0,0.1s0,0.1,0,0.2c0,0.1,0,0.1,0,0.2s0,0.1,0,0.1l0,1l0,0.2
		l-0.1,0.3c0,0.1,0,0.2,0,0.3s0,0.2,0,0.2c0,0,0,0.1,0,0.3c0,0.1,0,0.3-0.1,0.5c0,0.2-0.1,0.3-0.1,0.5c0,0.1,0,0.2,0,0.3v0.4
		c0,0,0,0.1,0,0.1s0,0.1-0.1,0.2c0,0.1-0.1,0.1-0.1,0.2c0,0.1,0,0.1,0,0.1c0,0,0,0.1,0,0.1c0,0.1,0,0.1,0,0.2s0,0.1,0,0.2
		c0,0.1,0,0.1,0,0.1c0,0.1-0.1,0.1-0.1,0.3s-0.1,0.3-0.2,0.4c-0.1,0.2-0.2,0.3-0.2,0.4c-0.1,0.1-0.1,0.2-0.1,0.3l-0.1,0.2
		c0,0-0.1,0.1-0.1,0.1s-0.1,0-0.1,0c0,0-0.1,0.1-0.1,0.1s-0.1,0.1-0.2,0.1c-0.1,0.1-0.2,0.1-0.3,0.1s-0.2,0.1-0.2,0.1
		c0,0-0.1,0-0.1,0s-0.1,0-0.1,0.1l-0.2,0.1l-0.2,0.1c-0.1,0-0.1,0-0.2,0s-0.1,0-0.1,0h-0.1h-0.1c0,0-0.1,0-0.1,0s-0.1,0-0.2,0
		l-0.2-0.1c0,0-0.1,0-0.1,0s-0.1,0-0.2-0.1c-0.1,0-0.1-0.1-0.2-0.1s-0.1-0.1-0.1-0.1l-0.3-0.2c-0.1-0.1-0.1-0.1-0.2-0.2
		s-0.1-0.1-0.1-0.1c0,0-0.1,0-0.1-0.1c0,0,0,0,0,0s0,0,0-0.1l-0.1-0.3l-0.2-0.4c0,0,0-0.1,0-0.1c0-0.1,0-0.1-0.1-0.2
		c0-0.1,0-0.1-0.1-0.2s0-0.1,0-0.1c0,0-0.1-0.1-0.1-0.2c0-0.1,0-0.2-0.1-0.2l-0.1-0.3V66.2z M133.3,61v0.4c0,0,0,0.1,0,0.1
		s0,0.1,0,0.2s0,0.1,0,0.2c0,0.1,0,0.1,0,0.1l0.2,0.2h0.2h0.3c0.1,0,0.1,0,0.2-0.1c0.1,0,0.2-0.1,0.2-0.1c0,0,0.1,0,0.2-0.1
		c0,0,0,0,0.1,0c0,0,0,0,0.1-0.1c0,0,0.1-0.1,0.1-0.1s0.1-0.1,0.2-0.2c0.1-0.1,0.1-0.2,0.2-0.2s0.1-0.1,0.1-0.1l0.4-0.4
		c0,0,0-0.1,0-0.1c0,0,0-0.1,0.1-0.1c0,0,0.1-0.1,0.1-0.1s0-0.1,0-0.1c0,0,0-0.1,0-0.1s0-0.1,0-0.2c0-0.1,0-0.1,0-0.2s0-0.1,0-0.1
		v-0.2v-0.1l-0.1-0.2c0,0,0-0.1,0-0.1c0,0,0-0.1,0-0.1s0-0.1,0-0.1s0-0.1-0.1-0.2l-0.1-0.3l-0.2-0.3l-0.1-0.2c0,0,0-0.1,0-0.1
		s0-0.1-0.1-0.2c0-0.1-0.1-0.1-0.1-0.2c0-0.1,0-0.1,0-0.1l-0.1-0.2h-0.1L135,57c0,0-0.1,0.1-0.1,0.1s-0.1,0.1-0.1,0.1
		s-0.1,0.1-0.1,0.2c0,0.1-0.1,0.1-0.1,0.1c0,0,0,0.1-0.1,0.1c0,0,0,0.1-0.1,0.1c0,0.1-0.1,0.1-0.1,0.2s-0.1,0.1-0.1,0.1
		c0,0,0,0.1,0,0.1c0,0,0,0.1-0.1,0.1c0,0-0.1,0.1-0.1,0.1c0,0,0,0.1,0,0.1c0,0,0,0.1-0.1,0.1s-0.1,0.1-0.1,0.2
		c0,0.1-0.1,0.1-0.1,0.2s-0.1,0.1-0.1,0.1s0,0.1,0,0.1s0,0.1,0,0.1l-0.1,0.1c0,0,0,0.1,0,0.1s0,0.1,0,0.2s0,0.1,0,0.2s0,0.1,0,0.1
		l-0.1,0.2c0,0.1,0,0.1,0,0.2s0,0.1,0,0.1V61z"/>
</g>
</svg>
